<?xml version="1.0" standalone="no"?>
<!DOCTYPE svg PUBLIC "-//W3C//DTD SVG 20010904//EN"
 "http://www.w3.org/TR/2001/REC-SVG-20010904/DTD/svg10.dtd">
<svg version="1.0" xmlns="http://www.w3.org/2000/svg"
 width="252.000000pt" height="252.000000pt" viewBox="0 0 252.000000 252.000000"
 preserveAspectRatio="xMidYMid meet">
<metadata>
Created by potrace 1.14, written by Peter Selinger 2001-2017
</metadata>
<g transform="translate(0.000000,252.000000) scale(0.100000,-0.100000)"
fill="#000000" stroke="none">
<path d="M1070 2363 c-77 -13 -281 -69 -329 -90 -217 -96 -312 -159 -439 -292
-65 -68 -140 -170 -199 -271 -12 -19 -38 -87 -59 -150 l-39 -115 0 -180 c1
-166 3 -187 27 -265 41 -130 65 -189 91 -223 13 -18 38 -57 55 -88 44 -78 200
-234 302 -301 100 -66 271 -150 355 -174 33 -9 80 -23 105 -30 25 -7 107 -20
182 -29 126 -14 150 -14 275 0 76 9 163 23 193 31 115 33 185 56 195 63 5 5
39 21 75 36 36 16 110 58 165 94 216 141 371 341 452 581 l38 115 0 190 0 190
-39 110 c-74 212 -215 403 -403 548 -95 72 -275 161 -403 198 -154 45 -256 59
-418 58 -86 -1 -168 -4 -182 -6z"/>
</g>
</svg>
